<svg width="424" height="83" viewBox="0 0 424 83" fill="none" xmlns="http://www.w3.org/2000/svg"><path d="M384.81 66.31V8.9h9.94V46.5l-3.8-1.13 19.43-20.33h12.36l-15.24 16.6 15.55 24.66h-11.38l-13.5-21.39 5.91-1.21-12.44 13.35 3.11-6.07V66.3h-9.94Z" fill="#ED6D1D"/><path fill-rule="evenodd" clip-rule="evenodd" d="M343.85 64.42a22.26 22.26 0 0 0 11.07 2.8 21.69 21.69 0 0 0 18.82-10.47 20.85 20.85 0 0 0 2.95-11.07c0-4.2-.98-7.89-2.95-11.08a21.03 21.03 0 0 0-7.82-7.66 21.84 21.84 0 0 0-11-2.8 21.62 21.62 0 0 0-18.96 10.47c-.76 1.27-3.3 1.25-4.08 0a21.04 21.04 0 0 0-7.8-7.67 21.84 21.84 0 0 0-11-2.8 21.62 21.62 0 0 0-18.96 10.47 21.27 21.27 0 0 0-2.9 11.07c0 4.15.97 7.84 2.89 11.07a21.62 21.62 0 0 0 18.96 10.47 21.69 21.69 0 0 0 18.81-10.47c.78-1.27 3.32-1.28 4.08 0a21.62 21.62 0 0 0 7.89 7.67Zm16.91-7.9a10.64 10.64 0 0 1-5.84 1.6c-2.27 0-4.27-.53-5.99-1.6a11.47 11.47 0 0 1-4.1-4.4 14.21 14.21 0 0 1-1.44-6.44c0-2.43.48-4.55 1.44-6.37a11.47 11.47 0 0 1 4.1-4.4 10.79 10.79 0 0 1 6-1.67c2.22 0 4.17.55 5.83 1.67a10.91 10.91 0 0 1 4.03 4.4 12.9 12.9 0 0 1 1.51 6.37c0 2.38-.5 4.52-1.51 6.45a10.9 10.9 0 0 1-4.03 4.4Zm-41.85 0a10.64 10.64 0 0 1-5.84 1.6c-2.27 0-4.27-.53-6-1.6a11.46 11.46 0 0 1-4.09-4.4 14.21 14.21 0 0 1-1.44-6.44c0-2.43.48-4.55 1.44-6.37a11.46 11.46 0 0 1 4.1-4.4 10.79 10.79 0 0 1 6-1.67c2.22 0 4.16.55 5.83 1.67a10.92 10.92 0 0 1 4.02 4.4 12.9 12.9 0 0 1 1.52 6.37c0 2.38-.5 4.52-1.52 6.45a10.92 10.92 0 0 1-4.02 4.4Z" fill="#ED6D1D"/><path d="M242.72 66.31V9.8h23.82c3.74 0 6.93.66 9.56 1.97a13.78 13.78 0 0 1 6.14 5.46c1.47 2.33 2.2 5.16 2.2 8.5 0 2.58-.7 5-2.12 7.28-1.37 2.23-3.57 4.07-6.6 5.54v-4.78a19.21 19.21 0 0 1 6.6 3.94 13.2 13.2 0 0 1 3.41 5.24c.66 1.92.99 3.94.99 6.07 0 5.4-1.8 9.66-5.39 12.74-3.54 3.03-8.47 4.55-14.79 4.55h-23.82Zm10.32-9.1h14.56c2.68 0 4.8-.73 6.38-2.2a7.83 7.83 0 0 0 2.42-6c0-2.47-.8-4.47-2.42-5.99-1.57-1.51-3.7-2.27-6.38-2.27h-14.56V57.2Zm0-25.49h14.03c2.13 0 3.82-.6 5.08-1.82a6.57 6.57 0 0 0 1.9-4.85c0-1.98-.63-3.54-1.9-4.7-1.26-1.17-2.95-1.75-5.08-1.75h-14.03v13.12Z" fill="#ED6D1D"/><path d="M213.87 83c-3.08 0-5.94-.5-8.57-1.52a20.5 20.5 0 0 1-6.83-4.25 15.8 15.8 0 0 1-4.1-6.3l9.26-3.48a8.47 8.47 0 0 0 3.57 4.63 11.77 11.77 0 0 0 6.67 1.82c2.02 0 3.8-.38 5.31-1.14a8.32 8.32 0 0 0 3.64-3.34 9.77 9.77 0 0 0 1.3-5.16v-9.4l1.89 2.27a14.12 14.12 0 0 1-5.7 5.62 17.01 17.01 0 0 1-8.1 1.9 20.1 20.1 0 0 1-10.32-2.66 18.97 18.97 0 0 1-7.13-7.28 20.97 20.97 0 0 1-2.58-10.4c0-3.9.86-7.35 2.58-10.39a18.73 18.73 0 0 1 7.05-7.13 19.54 19.54 0 0 1 10.16-2.65 16.22 16.22 0 0 1 14.04 7.5l-1.37 2.5v-9.1h9.4v39.22a18.15 18.15 0 0 1-9.78 16.3 21.46 21.46 0 0 1-10.39 2.44Zm-.45-27.54c2.12 0 3.97-.45 5.53-1.36a10.17 10.17 0 0 0 3.8-3.95c.9-1.66 1.36-3.59 1.36-5.76 0-2.12-.48-4.02-1.44-5.69a10.24 10.24 0 0 0-9.25-5.46c-2.08 0-3.95.48-5.62 1.44s-2.98 2.3-3.94 4.02a11.68 11.68 0 0 0-1.37 5.69c0 2.12.46 4.02 1.37 5.69a10.72 10.72 0 0 0 3.87 3.94 11.2 11.2 0 0 0 5.69 1.44Z" fill="#ED6D1D"/><path d="M165.98 67.22a21.61 21.61 0 0 1-18.96-10.47 21.27 21.27 0 0 1-2.89-11.07c0-4.15.97-7.84 2.89-11.08a21.61 21.61 0 0 1 18.96-10.46c4.05 0 7.71.93 11 2.8a21.04 21.04 0 0 1 7.81 7.66 20.6 20.6 0 0 1 2.96 11.08c0 4.15-.99 7.84-2.96 11.07A21.62 21.62 0 0 1 166 67.22Zm0-9.1c2.23 0 4.17-.53 5.84-1.6a10.91 10.91 0 0 0 4.02-4.4 13.63 13.63 0 0 0 1.52-6.44c0-2.43-.5-4.55-1.52-6.37a10.91 10.91 0 0 0-4.02-4.4 10.28 10.28 0 0 0-5.84-1.67c-2.27 0-4.27.55-6 1.67a11.46 11.46 0 0 0-4.09 4.4 13.46 13.46 0 0 0-1.44 6.37c0 2.38.48 4.52 1.44 6.45a11.46 11.46 0 0 0 4.1 4.4 11.17 11.17 0 0 0 6 1.59Z" fill="#ED6D1D"/><path d="M106.9 66.31V9.8h10.3v47.4h24.2v9.11h-34.5Z" fill="#ED6D1D"/><path fill-rule="evenodd" clip-rule="evenodd" d="M39.39 78.84c5.64 0 11.01-1.18 15.86-3.32a4.96 4.96 0 0 1-4.63-3.3l-18.3-2.55a4.96 4.96 0 0 1-7.72-3.3L9.07 64.52l-.35-.32a39.35 39.35 0 0 0 30.66 14.64ZM34.03 67.6l16.36 2.28a4.96 4.96 0 0 1 2.6-3.7V51.99a4.96 4.96 0 0 1-.77-.5L34.39 64.87a5 5 0 0 1-.36 2.72Zm-.55-4.91 17.03-12.8H28.93a4.98 4.98 0 0 1-1.3 1.58l2.53 9.23c1.36.19 2.55.93 3.32 1.99Zm21.8-10.13V65.6h.01a4.95 4.95 0 0 1 4.04 7.82A39.47 39.47 0 0 0 77.98 47.5L59.9 49.4a4.96 4.96 0 0 1-4.6 3.14h-.02Zm4.94-5.49 18.18-1.93A39.26 39.26 0 0 0 70 14.57a4.96 4.96 0 0 1-5.63 3.63L57.75 43.3a4.96 4.96 0 0 1 2.47 3.77ZM27.84 60.93l-2.32-8.48a4.98 4.98 0 0 1-4.33-1.2L11 62.44l13.78 1.64a4.97 4.97 0 0 1 3.07-3.15ZM7.6 62.73l12.28-13.45a4.95 4.95 0 0 1 .03-3.46L2.9 39.3c-.71.9-1.73 1.55-2.9 1.8a39.22 39.22 0 0 0 7.6 21.64ZM22.48 43.1c-.45.2-.85.47-1.21.78L3.84 37.2a4.98 4.98 0 0 0-3.11-5.6A39.19 39.19 0 0 1 6.2 18.15v.12a4.95 4.95 0 0 0 7 4.52l9.28 20.3Zm2.32-.44L15.06 21.3c.06-.08.12-.15.17-.24l19.4 8.84a4.96 4.96 0 0 0 1.44 5.06l-8.2 8.96a4.93 4.93 0 0 0-3.07-1.28Zm14.6-6.4c-.44 0-.85-.05-1.25-.16l-8.96 9.8c.2.53.3 1.1.3 1.7h20.85c0-.96.27-1.85.74-2.6l-8.9-9.6c-.8.55-1.75.86-2.79.86Zm4.33-2.56 8.97 9.68a4.93 4.93 0 0 1 2.85-.73l6.69-25.35a4.96 4.96 0 0 1-.21-.17l-18.34 11.7a4.93 4.93 0 0 1 .04 4.87Zm-1.65-6.56 18.57-11.85a4.94 4.94 0 0 1 3.24-6.74A39.25 39.25 0 0 0 39.39 0 39.33 39.33 0 0 0 9.65 13.54a4.95 4.95 0 0 1 6.41 5.39l19.72 8.98a4.94 4.94 0 0 1 6.3-.78Z" fill="#ED6D1D"/></svg>